<?xml version="1.0" encoding="UTF-8"?>
<svg id="Layer_2" data-name="Layer 2" xmlns="http://www.w3.org/2000/svg" viewBox="0 0 56 56">
  <defs>
    <style>
      .cls-1 {
        fill: white;
      }
    </style>
  </defs>
  <g id="Layer_2-2" data-name="Layer 2">
    <g>
      <path class="cls-1" d="M48,4c2.21,0,4,1.79,4,4v40c0,2.21-1.79,4-4,4H8c-2.21,0-4-1.79-4-4V8c0-2.21,1.79-4,4-4h40M48,0H8C3.59,0,0,3.59,0,8v40c0,4.41,3.59,8,8,8h40c4.41,0,8-3.59,8-8V8c0-4.41-3.59-8-8-8h0Z"/>
      <circle class="cls-1" cx="28" cy="44.4" r="2.82"/>
      <circle class="cls-1" cx="39.59" cy="39.59" r="2.82"/>
      <circle class="cls-1" cx="44.4" cy="28" r="2.82"/>
      <circle class="cls-1" cx="39.59" cy="16.41" r="2.82"/>
      <circle class="cls-1" cx="28" cy="11.6" r="2.82"/>
      <circle class="cls-1" cx="16.41" cy="16.41" r="2.82"/>
      <circle class="cls-1" cx="11.6" cy="28" r="2.82"/>
      <circle class="cls-1" cx="16.41" cy="39.59" r="2.82"/>
      <path class="cls-1" d="M28,15.53c-6.89,0-12.47,5.58-12.47,12.47s5.58,12.47,12.47,12.47,12.47-5.58,12.47-12.47-5.58-12.47-12.47-12.47ZM22.86,27.31c-.87,0-1.58-.71-1.58-1.58s.71-1.58,1.58-1.58,1.58.71,1.58,1.58-.71,1.58-1.58,1.58ZM30.54,34.45c-.7.7-1.62,1.05-2.54,1.05s-1.84-.35-2.54-1.05c-.41-.41-.71-.91-.89-1.46l1.46-.46c.1.32.27.6.51.84.8.8,2.11.8,2.91,0,.25-.25.42-.54.52-.87l1.47.43c-.17.57-.48,1.09-.9,1.52ZM33,27.31c-.87,0-1.58-.71-1.58-1.58s.71-1.58,1.58-1.58,1.58.71,1.58,1.58-.71,1.58-1.58,1.58Z"/>
    </g>
  </g>
</svg>